<svg viewBox="0 0 1012.17 1012.17" height="3825.54" width="3825.54" xmlns="http://www.w3.org/2000/svg"><path d="M42.33-379.18a488.01 488.01 0 0 1 345.03 142.92 488 488 0 0 1 142.92 345.03A488 488 0 0 1 387.36 453.8 488.01 488.01 0 0 1 42.33 596.7 488 488 0 0 1-302.69 453.8a488.01 488.01 0 0 1-142.92-345.03A488 488 0 0 1-302.7-236.26 488 488 0 0 1 42.33-379.18z" style="color:#000;font-style:normal;font-variant:normal;font-weight:400;font-stretch:normal;font-size:medium;line-height:normal;font-family:sans-serif;font-variant-ligatures:normal;font-variant-position:normal;font-variant-caps:normal;font-variant-numeric:normal;font-variant-alternates:normal;font-feature-settings:normal;text-indent:0;text-align:start;text-decoration:none;text-decoration-line:none;text-decoration-style:solid;text-decoration-color:#000;letter-spacing:normal;word-spacing:normal;text-transform:none;writing-mode:lr-tb;direction:ltr;text-orientation:mixed;dominant-baseline:auto;baseline-shift:baseline;text-anchor:start;white-space:normal;shape-padding:0;clip-rule:nonzero;display:inline;overflow:visible;visibility:visible;opacity:1;isolation:auto;mix-blend-mode:normal;color-interpolation:sRGB;color-interpolation-filters:linearRGB;solid-color:#000;solid-opacity:1;vector-effect:none;fill:red;fill-opacity:1;fill-rule:nonzero;stroke:none;stroke-width:96.4152;stroke-linecap:butt;stroke-linejoin:round;stroke-miterlimit:4;stroke-dasharray:none;stroke-dashoffset:0;stroke-opacity:1;paint-order:normal;color-rendering:auto;image-rendering:auto;shape-rendering:auto;text-rendering:auto;enable-background:accumulate" transform="matrix(-1 0 0 1 548.42 397.32)"/><path d="M34.73-245.34c104.65-2.12 208.3 42.07 279.08 126.49 107.85 128.63 110.43 316.16 6.15 447.7-104.28 131.54-287.44 171.83-437.3 96.18l45.07-89.27a253.79 253.79 0 0 0 313.87-69.03 253.79 253.79 0 0 0-4.41-321.33A253.79 253.79 0 0 0-78.45-115l-47.5-87.99a352.8 352.8 0 0 1 160.68-42.35z" style="color:#000;font-style:normal;font-variant:normal;font-weight:400;font-stretch:normal;font-size:medium;line-height:normal;font-family:sans-serif;font-variant-ligatures:normal;font-variant-position:normal;font-variant-caps:normal;font-variant-numeric:normal;font-variant-alternates:normal;font-feature-settings:normal;text-indent:0;text-align:start;text-decoration:none;text-decoration-line:none;text-decoration-style:solid;text-decoration-color:#000;letter-spacing:normal;word-spacing:normal;text-transform:none;writing-mode:lr-tb;direction:ltr;text-orientation:mixed;dominant-baseline:auto;baseline-shift:baseline;text-anchor:start;white-space:normal;shape-padding:0;clip-rule:nonzero;display:inline;overflow:visible;visibility:visible;opacity:1;isolation:auto;mix-blend-mode:normal;color-interpolation:sRGB;color-interpolation-filters:linearRGB;solid-color:#000;solid-opacity:1;vector-effect:none;fill:#000;fill-opacity:1;fill-rule:nonzero;stroke:none;stroke-width:100;stroke-linecap:butt;stroke-linejoin:round;stroke-miterlimit:4;stroke-dasharray:none;stroke-dashoffset:0;stroke-opacity:1;paint-order:normal;color-rendering:auto;image-rendering:auto;shape-rendering:auto;text-rendering:auto;enable-background:accumulate" transform="matrix(-1 0 0 1 548.42 397.32)"/><path d="M287.37-25.86a85.53 85.53 0 0 1-85.52 85.52 85.53 85.53 0 0 1-85.53-85.52 85.53 85.53 0 0 1 85.53-85.53 85.53 85.53 0 0 1 85.52 85.53zM287.37 224.3a85.53 85.53 0 0 1-85.52 85.53 85.53 85.53 0 0 1-85.53-85.53 85.53 85.53 0 0 1 85.53-85.52 85.53 85.53 0 0 1 85.52 85.52z" style="color:#000;clip-rule:nonzero;display:inline;overflow:visible;visibility:visible;opacity:1;isolation:auto;mix-blend-mode:normal;color-interpolation:sRGB;color-interpolation-filters:linearRGB;solid-color:#000;solid-opacity:1;fill:#000;fill-opacity:1;fill-rule:nonzero;stroke:none;stroke-width:99.9999924;stroke-linecap:butt;stroke-linejoin:round;stroke-miterlimit:4;stroke-dasharray:none;stroke-dashoffset:0;stroke-opacity:1;paint-order:normal;color-rendering:auto;image-rendering:auto;shape-rendering:auto;text-rendering:auto;enable-background:accumulate" transform="translate(548.42 397.32)"/><path d="M42.33-397.32A506.15 506.15 0 0 1 400.2-249.09a506.15 506.15 0 0 1 148.23 357.86 506.15 506.15 0 0 1-148.23 357.86A506.15 506.15 0 0 1 42.33 614.86a506.15 506.15 0 0 1-357.85-148.24 506.15 506.15 0 0 1-148.23-357.85A506.15 506.15 0 0 1-315.52-249.1 506.15 506.15 0 0 1 42.33-397.32zm0 100A406.03 406.03 0 0 0-244.8-178.38a406.02 406.02 0 0 0-118.94 287.15A406.02 406.02 0 0 0-244.81 395.9 406.03 406.03 0 0 0 42.33 514.86 406.02 406.02 0 0 0 329.48 395.9a406.02 406.02 0 0 0 118.94-287.14 406.02 406.02 0 0 0-118.94-287.15A406.02 406.02 0 0 0 42.33-297.32z" style="color:#000;font-style:normal;font-variant:normal;font-weight:400;font-stretch:normal;font-size:medium;line-height:normal;font-family:sans-serif;font-variant-ligatures:normal;font-variant-position:normal;font-variant-caps:normal;font-variant-numeric:normal;font-variant-alternates:normal;font-feature-settings:normal;text-indent:0;text-align:start;text-decoration:none;text-decoration-line:none;text-decoration-style:solid;text-decoration-color:#000;letter-spacing:normal;word-spacing:normal;text-transform:none;writing-mode:lr-tb;direction:ltr;text-orientation:mixed;dominant-baseline:auto;baseline-shift:baseline;text-anchor:start;white-space:normal;shape-padding:0;clip-rule:nonzero;display:inline;overflow:visible;visibility:visible;opacity:1;isolation:auto;mix-blend-mode:normal;color-interpolation:sRGB;color-interpolation-filters:linearRGB;solid-color:#000;solid-opacity:1;vector-effect:none;fill:#000;fill-opacity:1;fill-rule:nonzero;stroke:none;stroke-width:100;stroke-linecap:butt;stroke-linejoin:round;stroke-miterlimit:4;stroke-dasharray:none;stroke-dashoffset:0;stroke-opacity:1;paint-order:normal;color-rendering:auto;image-rendering:auto;shape-rendering:auto;text-rendering:auto;enable-background:accumulate" transform="matrix(-1 0 0 1 548.42 397.32)"/><path d="M34.73-245.34c104.65-2.12 208.3 42.07 279.08 126.49 107.85 128.63 110.43 316.16 6.15 447.7-104.28 131.54-287.44 171.83-437.3 96.18l45.07-89.27a253.79 253.79 0 0 0 313.87-69.03 253.79 253.79 0 0 0-4.41-321.33A253.79 253.79 0 0 0-78.45-115l-47.5-87.99a352.8 352.8 0 0 1 160.68-42.35z" style="color:#000;font-style:normal;font-variant:normal;font-weight:400;font-stretch:normal;font-size:medium;line-height:normal;font-family:sans-serif;font-variant-ligatures:normal;font-variant-position:normal;font-variant-caps:normal;font-variant-numeric:normal;font-variant-alternates:normal;font-feature-settings:normal;text-indent:0;text-align:start;text-decoration:none;text-decoration-line:none;text-decoration-style:solid;text-decoration-color:#000;letter-spacing:normal;word-spacing:normal;text-transform:none;writing-mode:lr-tb;direction:ltr;text-orientation:mixed;dominant-baseline:auto;baseline-shift:baseline;text-anchor:start;white-space:normal;shape-padding:0;clip-rule:nonzero;display:inline;overflow:visible;visibility:visible;opacity:1;isolation:auto;mix-blend-mode:normal;color-interpolation:sRGB;color-interpolation-filters:linearRGB;solid-color:#000;solid-opacity:1;vector-effect:none;fill:#000;fill-opacity:1;fill-rule:nonzero;stroke:none;stroke-width:100;stroke-linecap:butt;stroke-linejoin:round;stroke-miterlimit:4;stroke-dasharray:none;stroke-dashoffset:0;stroke-opacity:1;paint-order:normal;color-rendering:auto;image-rendering:auto;shape-rendering:auto;text-rendering:auto;enable-background:accumulate" transform="matrix(-1 0 0 1 548.42 397.32)"/><path d="M287.37-25.86a85.53 85.53 0 0 1-85.52 85.52 85.53 85.53 0 0 1-85.53-85.52 85.53 85.53 0 0 1 85.53-85.53 85.53 85.53 0 0 1 85.52 85.53zM287.37 224.3a85.53 85.53 0 0 1-85.52 85.53 85.53 85.53 0 0 1-85.53-85.53 85.53 85.53 0 0 1 85.53-85.52 85.53 85.53 0 0 1 85.52 85.52z" style="color:#000;clip-rule:nonzero;display:inline;overflow:visible;visibility:visible;opacity:1;isolation:auto;mix-blend-mode:normal;color-interpolation:sRGB;color-interpolation-filters:linearRGB;solid-color:#000;solid-opacity:1;fill:#000;fill-opacity:1;fill-rule:nonzero;stroke:none;stroke-width:99.9999924;stroke-linecap:butt;stroke-linejoin:round;stroke-miterlimit:4;stroke-dasharray:none;stroke-dashoffset:0;stroke-opacity:1;paint-order:normal;color-rendering:auto;image-rendering:auto;shape-rendering:auto;text-rendering:auto;enable-background:accumulate" transform="translate(548.42 397.32)"/></svg>